#!OML:ASF I:\golf\golf\golf 2\Subject 1\2002-09-07\Subject1.ASF
:FULLY-SPECIFIED
:DEGREES
171
root -6.5262 17.4109 2.56442 2.34054 51.0184 -10.1633
lowerback 4.5033 -9.87402 -12.4663
upperback 0.786828 -13.6234 -2.60511
thorax 0.556065 -6.78077 4.27214
lowerneck -7.60536 20.119 2.94572
upperneck 17.2847 30.7012 -14.6175
head 9.53531 13.4102 -1.50405
rclavicle 4.8901e-014 -2.8625e-014
rhumerus 27.2275 -17.827 -64.6568
rradius 109.382
rwrist 8.82247
rhand -63.9907 50.6223
rfingers 7.12502
rthumb -35.9422 24.2916
lclavicle 4.8901e-014 -2.8625e-014
lhumerus 106.869 -41.9696 44.6115
lradius 38.8981
lwrist -5.14852
lhand -32.348 -5.54304
lfingers 7.12502
lthumb -185.585 204.363
rfemur -33.9155 8.12614 26.7167
rtibia 42.4193
rfoot -13.6974 24.1023
rtoes 21.2796
lfemur -3.25063 14.49 2.50137
ltibia 25.1868
lfoot -12.1567 20.1178
ltoes -14.7812
172
root -6.52264 17.409 2.5663 2.32126 50.9766 -10.1957
lowerback 4.57304 -9.88721 -12.3652
upperback 0.733385 -13.6545 -2.56076
thorax 0.453676 -6.79002 4.28708
lowerneck -7.60927 20.1405 2.88237
upperneck 17.2613 30.7323 -14.6111
head 9.51991 13.4242 -1.49218
rclavicle -3.18055e-014 1.90833e-014
rhumerus 27.5629 -18.0973 -64.0922
rradius 109.398
rwrist 9.05729
rhand -64.1225 50.0652
rfingers 7.12502
rthumb -36.067 23.7652
lclavicle -3.18055e-014 1.90833e-014
lhumerus 107.13 -41.6354 44.7341
lradius 39.1335
lwrist -5.02415
lhand -32.5324 -5.99528
lfingers 7.12502
lthumb -185.763 203.906
rfemur -33.865 8.19985 26.7215
rtibia 42.3402
rfoot -13.7658 24.0692
rtoes 20.7752
lfemur -3.24146 14.3743 2.54601
ltibia 25.2436
lfoot -12.2876 20.0714
ltoes -13.9267
173
root -6.52028 17.4171 2.56942 2.31233 50.9743 -10.2286
lowerback 4.59248 -9.9192 -12.2969
upperback 0.739412 -13.6981 -2.49018
thorax 0.458181 -6.81398 4.32517
lowerneck -7.70445 20.1594 2.99265
upperneck 17.2796 30.834 -14.9009
head 9.62509 13.4391 -1.5513
rclavicle 1.18078e-013 -6.36111e-015
rhumerus 27.9148 -18.4012 -63.6487
rradius 109.309
rwrist 9.28833
rhand -64.0998 50.5337
rfingers 7.12502
rthumb -36.0455 24.2283
lclavicle 1.18078e-013 -6.36111e-015
lhumerus 107.419 -41.2403 44.8244
lradius 39.3289
lwrist -5.01254
lhand -32.6865 -6.29839
lfingers 7.12502
lthumb -185.912 203.599
rfemur -33.8255 8.29259 26.7142
rtibia 42.2481
rfoot -13.6538 24.0726
rtoes 21.0489
lfemur -3.26605 14.457 2.56801
ltibia 25.304
lfoot -11.9259 20.0902
ltoes -15.0149
174
root -6.51854 17.4258 2.57179 2.37233 50.9576 -10.2363
lowerback 4.54871 -9.9239 -12.2388
upperback 0.752714 -13.6952 -2.44185
thorax 0.494606 -6.81632 4.33489
lowerneck -7.89589 20.1446 3.22943
upperneck 17.4583 30.9254 -15.215
head 9.82895 13.4313 -1.61246
rclavicle 1.18873e-013 4.45278e-014
rhumerus 28.6739 -18.789 -63.1854
rradius 109.422
rwrist 9.50313
rhand -63.9447 49.8679
rfingers 7.12502
rthumb -35.8985 23.5266
lclavicle 1.18873e-013 4.45278e-014
lhumerus 107.785 -40.8857 44.8095
lradius 39.4573
lwrist -5.21665
lhand -32.9264 -6.16904
lfingers 7.12502
lthumb -186.143 203.722
rfemur -33.8517 8.40474 26.6773
rtibia 42.1641
rfoot -13.4589 24.0873
rtoes 21.4818
lfemur -3.33153 14.5661 2.55792
ltibia 25.3405
lfoot -11.6887 20.0741
ltoes -15.6851
175
root -6.51665 17.4292 2.57136 2.51238 50.9187 -10.1206
lowerback 4.53783 -9.91019 -12.2612
upperback 0.757001 -13.6762 -2.41697
thorax 0.513384 -6.80862 4.36845
lowerneck -8.13052 20.1541 3.00023
upperneck 17.5101 30.9356 -15.0395
head 9.82083 13.421 -1.51437
rclavicle 1.06747e-013 1.90833e-014
rhumerus 29.1861 -19.1155 -62.673
rradius 109.388
rwrist 9.68817
rhand -64.1533 49.6842
rfingers 7.12502
rthumb -36.0961 23.3914
lclavicle 1.06747e-013 1.90833e-014
lhumerus 108.129 -40.5454 44.7781
lradius 39.5441
lwrist -5.20928
lhand -33.1584 -6.10738
lfingers 7.12502
lthumb -186.367 203.777
rfemur -33.8738 8.46197 26.5553
rtibia 42.0995
rfoot -13.3165 24.168
rtoes 21.6438
lfemur -3.36238 14.5472 2.46665
ltibia 25.3541
lfoot -11.6086 20.0658
ltoes -16.0329
176
root -6.51536 17.4322 2.57045 2.63407 50.8645 -9.93528
lowerback 4.60003 -9.89431 -12.3654
upperback 0.765869 -13.6677 -2.39577
thorax 0.516242 -6.80522 4.45091
lowerneck -8.28356 20.2044 2.6214
upperneck 17.4005 30.9542 -14.7774
head 9.70149 13.4368 -1.39478
rclavicle 1.3577e-013 2.22639e-014
rhumerus 29.5796 -19.309 -62.1848
rradius 109.216
rwrist 9.95658
rhand -64.5021 49.2124
rfingers 7.12502
rthumb -36.4265 23.0018
lclavicle 1.3577e-013 2.22639e-014
lhumerus 108.261 -40.2952 44.9559
lradius 39.63
lwrist -5.21648
lhand -33.3731 -6.38404
lfingers 7.12502
lthumb -186.574 203.494
rfemur -33.8364 8.50684 26.3965
rtibia 42.067
rfoot -13.1329 24.284
rtoes 22.144
lfemur -3.28019 14.5522 2.35727
ltibia 25.3147
lfoot -11.5076 19.9995
ltoes -16.6265
177
root -6.51385 17.4355 2.56818 2.79073 50.8325 -9.69581
lowerback 4.66572 -9.86332 -12.4982
upperback 0.773983 -13.6404 -2.41147
thorax 0.510668 -6.79102 4.5124
lowerneck -8.31609 20.2332 2.5207
upperneck 17.2881 30.9628 -14.7213
head 9.64147 13.4501 -1.3704
rclavicle -1.92225e-013 -3.49861e-014
rhumerus 29.8577 -19.4993 -61.7692
rradius 109.054
rwrist 10.2521
rhand -64.7218 48.6065
rfingers 7.12502
rthumb -36.6344 22.4484
lclavicle -1.92225e-013 -3.49861e-014
lhumerus 108.357 -40.1588 45.1586
lradius 39.7704
lwrist -5.23523
lhand -33.5129 -6.50189
lfingers 7.12502
lthumb -186.709 203.372
rfemur -33.8095 8.53906 26.2129
rtibia 42.0506
rfoot -13.0928 24.2693
rtoes 22.0564
lfemur -3.18872 14.6187 2.21519
ltibia 25.2497
lfoot -11.387 19.8401
ltoes -16.9562
178
root -6.51307 17.4392 2.56496 2.93844 50.7943 -9.4942
lowerback 4.69154 -9.79898 -12.6265
upperback 0.772751 -13.5631 -2.46185
thorax 0.499114 -6.75054 4.53332
lowerneck -8.14094 20.2224 2.65319
upperneck 17.1349 30.8948 -14.7546
head 9.57597 13.4497 -1.42801
rclavicle 1.16687e-013 -6.36111e-015
rhumerus 29.9688 -19.7558 -61.3976
rradius 109.046
rwrist 10.3152
rhand -64.7931 47.4752
rfingers 7.12502
rthumb -36.7019 21.3342
lclavicle 1.16687e-013 -6.36111e-015
lhumerus 108.558 -40.1123 45.2045
lradius 39.8799
lwrist -5.22462
lhand -33.69 -6.43419
lfingers 7.12502
lthumb -186.88 203.434
rfemur -33.7976 8.66455 26.038
rtibia 42.0168
rfoot -13.1089 24.1561
rtoes 21.5685
lfemur -3.14395 14.757 2.09151
ltibia 25.2218
lfoot -11.1591 19.7096
ltoes -17.3896
179
root -6.51373 17.4417 2.56033 2.87274 50.7439 -9.55411
lowerback 4.7099 -9.7095 -12.6089
upperback 0.785055 -13.4454 -2.49549
thorax 0.470216 -6.6904 4.50001
lowerneck -7.92641 20.1872 2.84476
upperneck 17.0167 30.7832 -14.7493
head 9.51351 13.4354 -1.49056
rclavicle -1.03368e-014 7.63333e-014
rhumerus 30.0171 -20.1144 -61.062
rradius 109.026
rwrist 10.2347
rhand -64.7806 46.5744
rfingers 7.12502
rthumb -36.69 20.4305
lclavicle -1.03368e-014 7.63333e-014
lhumerus 108.808 -40.16 45.2243
lradius 39.8275
lwrist -5.35401
lhand -33.8313 -6.51365
lfingers 7.12502
lthumb -187.017 203.35
rfemur -33.7711 8.79179 26.0443
rtibia 41.9722
rfoot -12.9125 24.1237
rtoes 21.8183
lfemur -3.10944 14.9074 2.16202
ltibia 25.2307
lfoot -10.9905 19.5975
ltoes -18.062
180
root -6.51391 17.4435 2.55185 2.71903 50.7379 -9.74937
lowerback 4.75714 -9.63094 -12.4594
upperback 0.792036 -13.3429 -2.49992
thorax 0.399971 -6.63638 4.43777
lowerneck -7.81702 20.1409 2.90692
upperneck 16.9326 30.6611 -14.6625
head 9.44556 13.4075 -1.50855
rclavicle 1.0138e-013 6.04305e-014
rhumerus 30.1049 -20.459 -60.7614
rradius 108.872
rwrist 10.0753
rhand -64.8933 47.6928
rfingers 7.12502
rthumb -36.7967 21.576
lclavicle 1.0138e-013 6.04305e-014
lhumerus 109.029 -40.202 45.2548
lradius 39.8367
lwrist -5.24111
lhand -33.7241 -6.56652
lfingers 7.12502
lthumb -186.913 203.301
rfemur -33.7759 8.76501 26.1556
rtibia 41.9323
rfoot -12.6701 24.1866
rtoes 22.2593
lfemur -3.13425 14.9933 2.30327
ltibia 25.264
lfoot -10.9258 19.5056
ltoes -18.8318
